<svg id="Layer_1" data-name="Layer 1" xmlns="http://www.w3.org/2000/svg" viewBox="0 0 173.31 152"><defs><style>.cls-1{fill:#fff;}</style></defs><title>d</title><path d="M260.45,255.94c9.86,5.71,20.18,8,31.29,5.36,4.88-1.17,10.73-2.57,11.15-8.4.43-6-5.17-8.49-10.06-10.29-12.26-4.52-24.78-3-36.91,0-11.57,2.87-22.77,7.25-34.13,11a3.77,3.77,0,0,1-3.13,0,61.4,61.4,0,0,1,6.68-4.79c27-14.51,55.35-21.59,86.11-15.2,1.67.35,4.83-.93,5.5-2.31,1.69-3.52,2.49-7.49,3.36-11.35.54-2.38.55-4.87.94-8.78,3,2.75,5.34,4.46,7.1,6.66,7.39,9.24,11.09,19.95,12.42,31.63a12.17,12.17,0,0,0,2.51,6.13c15.57,18.59,24.46,39.87,26.07,64.1a61.21,61.21,0,0,1-.33,8.46c-.71,9.76-1.57,19.5-2.19,29.27-.33,5.25-3.47,7.32-7.92,4.44-2.73-1.77-5-4.38-7.22-6.8-7.49-8-15-16.08-22.3-24.24-8.12-9-12.55-19.52-12.08-31.8a9.3,9.3,0,0,1,1.74-4.84c.23.78.51,1.56.7,2.35a73.3,73.3,0,0,0,21.46,37.59c3.69,3.45,8.19,6.89,13.38,3.85,4.83-2.83,3.79-8.09,2.77-12.69a76.3,76.3,0,0,0-26.29-43.07c-6.38-5.34-14.24-5.9-21.95-7.28-10.14-1.81-20.28-3.75-30.27-6.26A30,30,0,0,1,260.45,255.94Zm55.33-16.47c1.06,1,3.1,2.95,5.12,4.9s3.71,1.45,5.18-.88c3.41-5.43,2.31-19.47-1.88-23.05Z" transform="translate(-196.11 -211.14)"/><path d="M225.65,256.18c16.29-2.3,30.91,2.52,44.66,10.6a78.2,78.2,0,0,1,12.19,8.65c7.25,6.41,13.4,14.23,23.35,16.91a8.75,8.75,0,0,1,2.48,1.65c7.47,5.42,7.44,7.43-.71,11.76l12.17,13.79-.8.93c-4.75-4.11-9.35-8.42-14.33-12.23a17.23,17.23,0,0,0-7.74-3.34c-7-1-14-1.9-19.5-6.71-2.22-1.93-3.79-4.6-6.19-7.61l17.83-1.36.26-1.59C272.65,268.23,252.17,256.34,225.65,256.18ZM276,292.36l-.42,1.72c6.14,1.71,12.24,3.63,18.46,5,2.25.5,5.58.49,5.26-3.33-.26-3.1-1.49-5.94-5.61-5.45C287.84,291,281.94,291.67,276,292.36Z" transform="translate(-196.11 -211.14)"/><path d="M211.74,242.63c1.93,5.53,5,10,4.46,13.95s-4.59,7.67-8,12.76l12.09-8.91c.58,6.94-11.29,13.68-24.22,16.23,1.58-2.51,2.6-4.46,3.93-6.18,3.7-4.81,8-8.91,9.75-15.32a11.07,11.07,0,0,0-1.19-9.23c-2-3.51-3.85-7.06-6.17-11.33,9,1.53,16.57,7.73,18.93,14.85Z" transform="translate(-196.11 -211.14)"/><path d="M352,332.41c-4.58-1.89-5.64-4.58-4.69-8.79C351.71,325,352.4,327.91,352,332.41Z" transform="translate(-196.11 -211.14)"/><path class="cls-1" d="M315.78,239.47l8.42-19c4.19,3.58,5.29,17.62,1.88,23.05-1.47,2.34-3,2.94-5.18.88S316.84,240.48,315.78,239.47Z" transform="translate(-196.11 -211.14)"/><path class="cls-1" d="M276,292.36c5.89-.68,11.79-1.35,17.68-2,4.12-.49,5.35,2.35,5.61,5.45.32,3.83-3,3.83-5.26,3.33-6.22-1.39-12.31-3.31-18.46-5Z" transform="translate(-196.11 -211.14)"/></svg>